<?xml version="1.0" encoding="UTF-8" standalone="no"?>
<!DOCTYPE svg PUBLIC "-//W3C//DTD SVG 1.1//EN" "http://www.w3.org/Graphics/SVG/1.1/DTD/svg11.dtd">
<svg width="100%" height="100%" viewBox="0 0 15 17" version="1.1" xmlns="http://www.w3.org/2000/svg" xmlns:xlink="http://www.w3.org/1999/xlink" xml:space="preserve" xmlns:serif="http://www.serif.com/" style="fill-rule:evenodd;clip-rule:evenodd;stroke-linejoin:round;stroke-miterlimit:1.41421;">
    <g transform="matrix(1,0,0,1,-1518,-916.998)">
        <path id="Forma-1" serif:id="Forma 1" d="M1526.59,916.998C1526.86,916.999 1527.12,917.089 1527.38,917.269C1527.63,917.45 1527.81,917.668 1527.91,917.925L1528.61,919.665L1531.68,919.665C1531.78,919.665 1531.85,919.696 1531.91,919.759C1531.97,919.821 1532,919.901 1532,919.999L1532,920.665C1532,920.762 1531.97,920.843 1531.91,920.905C1531.85,920.967 1531.78,920.999 1531.68,920.999L1530.73,920.999L1530.73,930.876C1530.73,931.451 1530.57,931.95 1530.26,932.37C1529.95,932.79 1529.58,933 1529.14,933L1520.86,933C1520.42,933 1520.05,932.797 1519.74,932.391C1519.43,931.985 1519.27,931.493 1519.27,930.916L1519.27,920.999L1518.32,920.999C1518.22,920.998 1518.15,920.967 1518.09,920.905C1518.03,920.843 1518,920.762 1518,920.665L1518,919.999C1518,919.901 1518.03,919.821 1518.09,919.759C1518.15,919.697 1518.22,919.666 1518.32,919.665L1521.39,919.665L1522.09,917.925C1522.18,917.668 1522.36,917.45 1522.62,917.269C1522.88,917.089 1523.14,916.999 1523.41,916.998L1526.59,916.998ZM1529.14,931.667C1529.16,931.666 1529.19,931.636 1529.24,931.578C1529.29,931.519 1529.34,931.425 1529.38,931.297C1529.43,931.168 1529.45,931.028 1529.45,930.875L1529.45,920.999L1520.54,920.999L1520.54,930.875C1520.54,931.028 1520.57,931.168 1520.61,931.297C1520.66,931.425 1520.71,931.519 1520.76,931.578C1520.81,931.638 1520.84,931.667 1520.86,931.667L1529.14,931.667ZM1522.77,922.999C1522.87,922.999 1522.94,923.031 1523,923.093C1523.06,923.155 1523.09,923.235 1523.09,923.332L1523.09,929.333C1523.09,929.431 1523.06,929.51 1523,929.573C1522.94,929.635 1522.87,929.666 1522.77,929.666L1522.13,929.666C1522.04,929.666 1521.97,929.635 1521.91,929.573C1521.85,929.51 1521.82,929.431 1521.82,929.333L1521.82,923.332C1521.82,923.235 1521.85,923.155 1521.91,923.093C1521.97,923.031 1522.04,922.999 1522.13,922.999L1522.77,922.999ZM1525.32,922.999C1525.41,922.999 1525.49,923.031 1525.55,923.093C1525.61,923.155 1525.64,923.235 1525.64,923.332L1525.64,929.333C1525.64,929.431 1525.61,929.51 1525.55,929.573C1525.49,929.635 1525.41,929.666 1525.32,929.666L1524.68,929.666C1524.59,929.666 1524.51,929.635 1524.45,929.573C1524.39,929.51 1524.36,929.431 1524.36,929.333L1524.36,923.332C1524.36,923.235 1524.39,923.155 1524.45,923.093C1524.51,923.031 1524.59,922.999 1524.68,922.999L1525.32,922.999ZM1527.86,922.999C1527.96,922.999 1528.03,923.031 1528.09,923.093C1528.15,923.155 1528.18,923.235 1528.18,923.332L1528.18,929.333C1528.18,929.431 1528.15,929.51 1528.09,929.573C1528.03,929.635 1527.96,929.666 1527.86,929.666L1527.23,929.666C1527.13,929.666 1527.06,929.635 1527,929.573C1526.94,929.51 1526.91,929.431 1526.91,929.333L1526.91,923.332C1526.91,923.235 1526.94,923.155 1527,923.093C1527.06,923.031 1527.13,922.999 1527.23,922.999L1527.86,922.999ZM1527.23,919.665L1526.75,918.446C1526.7,918.384 1526.65,918.346 1526.58,918.332L1523.43,918.332C1523.36,918.346 1523.31,918.384 1523.26,918.446L1522.77,919.665L1527.23,919.665Z" style="fill:rgb(239,103,113);"/>
    </g>
</svg>
