<?xml version="1.0" encoding="UTF-8" standalone="no"?>
<!DOCTYPE svg PUBLIC "-//W3C//DTD SVG 1.1//EN" "http://www.w3.org/Graphics/SVG/1.1/DTD/svg11.dtd">
<svg width="100%" height="100%" viewBox="0 0 4 18" version="1.1" xmlns="http://www.w3.org/2000/svg" xmlns:xlink="http://www.w3.org/1999/xlink" xml:space="preserve" xmlns:serif="http://www.serif.com/" style="fill-rule:evenodd;clip-rule:evenodd;stroke-linejoin:round;stroke-miterlimit:1.41421;">
    <g transform="matrix(1,0,0,1,-1532,-399.807)">
        <g transform="matrix(1,0,0,1,0,0.8073)">
            <path id="Ellipse-8-copy-2" serif:id="Ellipse 8 copy 2" d="M1534,413C1535.1,413 1536,413.896 1536,415C1536,416.104 1535.1,417 1534,417C1532.9,417 1532,416.104 1532,415C1532,413.896 1532.9,413 1534,413ZM1534,406C1535.1,406 1536,406.896 1536,408C1536,409.104 1535.1,410 1534,410C1532.9,410 1532,409.104 1532,408C1532,406.896 1532.9,406 1534,406ZM1534,399C1535.1,399 1536,399.896 1536,401C1536,402.104 1535.1,403 1534,403C1532.9,403 1532,402.104 1532,401C1532,399.896 1532.9,399 1534,399Z" style="fill:rgb(128,122,150);"/>
        </g>
    </g>
</svg>
