<?xml version="1.0" encoding="UTF-8" standalone="no"?>
<!DOCTYPE svg PUBLIC "-//W3C//DTD SVG 1.1//EN" "http://www.w3.org/Graphics/SVG/1.1/DTD/svg11.dtd">
<svg width="100%" height="100%" viewBox="0 0 24 25" version="1.1" xmlns="http://www.w3.org/2000/svg" xmlns:xlink="http://www.w3.org/1999/xlink" xml:space="preserve" xmlns:serif="http://www.serif.com/" style="fill-rule:evenodd;clip-rule:evenodd;stroke-linejoin:round;stroke-miterlimit:1.41421;">
    <g transform="matrix(1,0,0,1,-691,-639)">
        <path id="Forma-1" serif:id="Forma 1" d="M711.485,654.515C710.178,653.208 708.623,652.24 706.925,651.654C708.743,650.402 709.937,648.307 709.937,645.937C709.937,642.112 706.825,639 703,639C699.175,639 696.062,642.112 696.062,645.937C696.062,648.307 697.257,650.402 699.075,651.654C697.377,652.24 695.822,653.208 694.515,654.515C692.248,656.781 691,659.795 691,663L692.875,663C692.875,657.417 697.417,652.875 703,652.875C708.583,652.875 713.125,657.417 713.125,663L715,663C715,659.795 713.752,656.781 711.485,654.515ZM703,651C700.209,651 697.937,648.729 697.937,645.937C697.937,643.146 700.209,640.875 703,640.875C705.791,640.875 708.062,643.146 708.062,645.937C708.062,648.729 705.791,651 703,651Z" style="fill:rgb(247,133,0);fill-rule:nonzero;"/>
    </g>
</svg>
