<?xml version="1.0" encoding="UTF-8" standalone="no"?>
<!DOCTYPE svg PUBLIC "-//W3C//DTD SVG 1.1//EN" "http://www.w3.org/Graphics/SVG/1.1/DTD/svg11.dtd">
<svg width="32" height="32" viewBox="0 0 32 32" version="1.1" xmlns="http://www.w3.org/2000/svg" xmlns:xlink="http://www.w3.org/1999/xlink" xml:space="preserve" xmlns:serif="http://www.serif.com/" style="fill-rule:evenodd;clip-rule:evenodd;stroke-linejoin:round;stroke-miterlimit:1.41421;">
    <g id="Forma-1" serif:id="Forma 1" transform="matrix(1,0,0,1,-40.9995,-102.062)">
        <path d="M45.366,129.067C43.868,126.801 43.001,124.096 43.001,121.187C43.001,113.358 49.268,107.013 56.998,107.013C64.733,107.013 71.001,113.358 70.998,121.188C70.998,124.105 70.126,126.815 68.636,129.067L66.732,129.067C66.743,129.054 66.756,129.037 66.764,129.023L64.402,126.629L65.658,125.355L67.783,127.504C68.85,125.645 69.469,123.493 69.469,121.188L69.451,120.866L66.568,120.866L66.568,119.064L69.275,119.061C68.92,116.945 68.054,115.011 66.797,113.395L64.83,115.385L63.57,114.111L65.597,112.056C63.492,110.023 60.686,108.738 57.583,108.594L57.583,111.861L55.802,111.863L55.8,108.623C53.022,108.893 50.517,110.092 48.573,111.902L50.553,113.907L49.295,115.182L47.341,113.205C46.007,114.858 45.091,116.864 44.723,119.06L47.33,119.06L47.33,120.863L44.547,120.866C44.545,120.975 44.532,121.077 44.532,121.187C44.532,123.502 45.158,125.666 46.233,127.531L48.495,125.529L49.667,126.886L47.241,129.032C47.251,129.041 47.258,129.056 47.268,129.067L47.201,129.067L47.151,129.111L47.113,129.067L45.366,129.067ZM57.485,123.525C58.182,123.525 58.748,122.949 58.748,122.243C58.748,121.538 58.182,120.966 57.485,120.966L51.763,116.704L56.222,122.325C56.264,122.994 56.814,123.525 57.485,123.525Z" style="fill:white;fill-opacity:0.8;"/>
    </g>
</svg>
