<?xml version="1.0" encoding="UTF-8" standalone="no"?>
<!DOCTYPE svg PUBLIC "-//W3C//DTD SVG 1.1//EN" "http://www.w3.org/Graphics/SVG/1.1/DTD/svg11.dtd">
<svg width="32" height="32" viewBox="0 0 32 32" version="1.1" xmlns="http://www.w3.org/2000/svg" xmlns:xlink="http://www.w3.org/1999/xlink" xml:space="preserve" xmlns:serif="http://www.serif.com/" style="fill-rule:evenodd;clip-rule:evenodd;stroke-linejoin:round;stroke-miterlimit:1.41421;">
    <g id="Forma-1" serif:id="Forma 1" transform="matrix(1,0,0,1,-41,-373.178)">
        <path d="M65.312,375.068L65.312,381.929L67.5,384.28L67.5,403.288L48.687,403.288L48.687,400.936L46.5,400.936L46.5,375.068L65.312,375.068ZM60.5,384.945L60.5,378.361L49.562,378.361L49.562,402.347L66.625,402.347L66.625,384.945L60.5,384.945ZM61.118,377.42L64.437,380.988L64.437,376.009L47.375,376.009L47.375,399.996L48.687,399.996L48.687,377.42L61.118,377.42ZM63.562,398.114C63.804,398.115 64,398.325 64,398.585C64,398.845 63.804,399.055 63.562,399.055L52.625,399.055C52.383,399.055 52.187,398.845 52.187,398.585C52.187,398.325 52.383,398.115 52.625,398.114L63.562,398.114ZM63.562,394.352C63.804,394.352 64,394.562 64,394.822C64,395.082 63.804,395.292 63.562,395.293L52.625,395.293C52.383,395.293 52.187,395.082 52.187,394.822C52.187,394.562 52.383,394.352 52.625,394.352L63.562,394.352ZM63.562,390.589C63.804,390.59 64,390.8 64,391.059C64,391.319 63.804,391.529 63.562,391.53L52.625,391.53C52.383,391.53 52.187,391.32 52.187,391.059C52.187,390.8 52.383,390.59 52.625,390.589L63.562,390.589ZM63.562,386.827C63.804,386.827 64,387.037 64,387.297C64,387.557 63.804,387.767 63.562,387.767L52.625,387.767C52.383,387.767 52.187,387.557 52.187,387.297C52.187,387.037 52.383,386.827 52.625,386.827L63.562,386.827ZM57,383.064C57.242,383.064 57.437,383.275 57.437,383.534C57.437,383.794 57.242,384.004 57,384.004L52.625,384.004C52.383,384.004 52.187,383.794 52.187,383.534C52.187,383.275 52.383,383.064 52.625,383.064L57,383.064ZM66.006,384.004L65.312,383.259L61.375,379.026L61.375,384.004L66.006,384.004Z" style="fill:white;fill-opacity:0.8;"/>
    </g>
</svg>
