<?xml version="1.0" encoding="UTF-8" standalone="no"?>
<!DOCTYPE svg PUBLIC "-//W3C//DTD SVG 1.1//EN" "http://www.w3.org/Graphics/SVG/1.1/DTD/svg11.dtd">
<svg width="100%" height="100%" viewBox="0 0 16 16" version="1.1" xmlns="http://www.w3.org/2000/svg" xmlns:xlink="http://www.w3.org/1999/xlink" xml:space="preserve" xmlns:serif="http://www.serif.com/" style="fill-rule:evenodd;clip-rule:evenodd;stroke-linejoin:round;stroke-miterlimit:1.41421;">
    <g id="Forma-1" serif:id="Forma 1" transform="matrix(1,0,0,1,-1484.57,-917.006)">
        <path d="M1491.72,917.736C1492.06,917.741 1492.33,918.016 1492.33,918.351C1492.33,918.689 1492.06,918.965 1491.72,918.965L1486.22,918.965L1486.22,931.77L1496.4,931.77L1496.4,926.648C1496.4,926.31 1496.68,926.033 1497.01,926.033C1497.35,926.033 1497.62,926.31 1497.62,926.648L1497.62,932.385C1497.62,932.723 1497.35,933 1497.01,933L1485.61,933C1485.27,933 1485,932.723 1485,932.385L1485,918.351C1485,918.016 1485.27,917.741 1485.61,917.736L1491.72,917.736ZM1495.94,917.182L1489.83,923.339C1489.71,923.452 1489.65,923.605 1489.64,923.769L1489.6,926.914C1489.6,927.079 1489.66,927.252 1489.79,927.365C1489.9,927.478 1490.06,927.57 1490.21,927.57L1490.22,927.57L1493.25,927.509C1493.41,927.509 1493.56,927.416 1493.67,927.304L1499.84,921.096C1500.08,920.86 1500.08,920.471 1499.84,920.225L1496.82,917.182C1496.57,916.947 1496.18,916.947 1495.94,917.182ZM1492.97,926.259L1490.83,926.289L1490.86,924.036L1493.98,920.901L1496.13,923.093L1492.97,926.259ZM1496.99,922.212L1494.84,920.02L1496.37,918.484L1498.53,920.655L1496.99,922.212Z" style="fill:rgb(61,197,123);"/>
    </g>
</svg>
