<svg width="140" height="136" viewBox="0 0 140 136" fill="none" xmlns="http://www.w3.org/2000/svg">
<path fill-rule="evenodd" clip-rule="evenodd" d="M102.501 22.6819C102.501 19.9205 104.74 17.6819 107.501 17.6819H134.621C137.382 17.6819 139.621 19.9205 139.621 22.6819V48.1412C139.621 50.9027 137.382 53.1413 134.621 53.1413C131.859 53.1413 129.621 50.9027 129.621 48.1412V34.8133L99.558 65.0883C98.6193 66.0336 97.3422 66.5653 96.01 66.5653C94.6779 66.5653 93.4008 66.0336 92.4621 65.0883L79.4627 51.9971L30.151 101.657C28.2053 103.617 25.0394 103.628 23.08 101.682C21.1205 99.7364 21.1093 96.5706 23.0551 94.6111L75.9147 41.3779C76.8534 40.4326 78.1305 39.901 79.4627 39.901C80.7949 39.901 82.072 40.4326 83.0106 41.3779L96.01 54.4692L122.609 27.6819H107.501C104.74 27.6819 102.501 25.4433 102.501 22.6819Z" fill="#FE84BE"/>
<path fill-rule="evenodd" clip-rule="evenodd" d="M0 0H10V126H136V136H0V0Z" fill="#FE84BE"/>
</svg>
