<?xml version="1.0" encoding="UTF-8" standalone="no"?>
<!DOCTYPE svg PUBLIC "-//W3C//DTD SVG 1.1//EN" "http://www.w3.org/Graphics/SVG/1.1/DTD/svg11.dtd">
<svg width="32" height="32" viewBox="0 0 32 32" version="1.1" xmlns="http://www.w3.org/2000/svg" xmlns:xlink="http://www.w3.org/1999/xlink" xml:space="preserve" xmlns:serif="http://www.serif.com/" style="fill-rule:evenodd;clip-rule:evenodd;stroke-linejoin:round;stroke-miterlimit:1.41421;">
    <g id="Forma-1" serif:id="Forma 1" transform="matrix(1,0,0,1,-40.9995,-554.269)">
        <path d="M57,558C50.549,558 45.333,563.485 45.333,570.27C45.333,577.054 50.549,582.539 57,582.539C63.451,582.539 68.666,577.054 68.666,570.27C68.666,563.485 63.451,558 57,558ZM57,581.096C51.372,581.096 46.706,576.188 46.706,570.27C46.706,564.351 51.372,559.444 57,559.444C62.627,559.444 67.294,564.351 67.294,570.27C67.294,576.188 62.627,581.096 57,581.096ZM56.451,575.466C56.313,575.611 56.313,575.899 56.313,576.044C56.313,576.188 56.313,576.332 56.451,576.477C56.588,576.621 56.863,576.765 57,576.765C57.137,576.765 57.411,576.621 57.411,576.477C57.549,576.477 57.686,576.188 57.686,576.044C57.686,575.755 57.549,575.611 57.411,575.466C57.137,575.178 56.725,575.178 56.451,575.466ZM57.549,563.774C56.725,563.485 55.764,563.774 55.078,564.351C54.392,564.929 53.98,565.795 53.98,566.805C53.98,567.239 54.255,567.527 54.666,567.527C55.078,567.527 55.353,567.239 55.353,566.805C55.353,566.372 55.49,565.795 55.902,565.506C56.313,565.218 56.725,565.073 57.274,565.218C57.96,565.362 58.372,565.939 58.51,566.517C58.647,567.239 58.51,567.816 57.96,568.249C56.863,569.115 56.313,570.414 56.313,571.713C56.313,572.146 56.588,572.435 57,572.435C57.411,572.435 57.686,572.146 57.549,571.713C57.549,570.847 58.098,569.981 58.784,569.403C59.745,568.537 60.157,567.383 59.882,566.228C59.608,564.929 58.647,564.063 57.549,563.774Z" style="fill:white;fill-opacity:0.8;"/>
    </g>
</svg>
