<?xml version="1.0" encoding="UTF-8" standalone="no"?>
<!DOCTYPE svg PUBLIC "-//W3C//DTD SVG 1.1//EN" "http://www.w3.org/Graphics/SVG/1.1/DTD/svg11.dtd">
<svg width="32" height="32" viewBox="0 0 32 32" version="1.1" xmlns="http://www.w3.org/2000/svg" xmlns:xlink="http://www.w3.org/1999/xlink" xml:space="preserve" xmlns:serif="http://www.serif.com/" style="fill-rule:evenodd;clip-rule:evenodd;stroke-linejoin:round;stroke-miterlimit:1.41421;">
    <g id="Forma-1" serif:id="Forma 1" transform="matrix(1,0,0,1,-41.0185,-643.741)">
        <path d="M68.211,647.472C68.473,647.472 68.685,647.696 68.685,647.971L68.685,671.511C68.685,671.787 68.473,672.011 68.211,672.011C67.948,672.011 67.736,671.787 67.736,671.511L67.736,648.47L46.302,648.47L46.302,671.012L64.853,671.012C65.116,671.012 65.328,671.236 65.328,671.511C65.328,671.787 65.116,672.011 64.853,672.011L45.827,672.011C45.565,672.011 45.352,671.787 45.352,671.511L45.352,647.971C45.352,647.696 45.564,647.472 45.827,647.472L68.211,647.472ZM50.561,662.987C49.557,662.987 48.74,663.846 48.74,664.901C48.74,665.957 49.557,666.816 50.561,666.816C51.564,666.816 52.381,665.957 52.381,664.901C52.381,663.846 51.564,662.987 50.561,662.987ZM50.561,665.817C50.081,665.817 49.69,665.406 49.69,664.901C49.69,664.397 50.081,663.986 50.561,663.986C51.041,663.986 51.431,664.397 51.431,664.901C51.431,665.406 51.041,665.817 50.561,665.817ZM64.885,664.402C65.147,664.402 65.359,664.626 65.359,664.901C65.359,665.177 65.147,665.401 64.885,665.401L53.805,665.401C53.543,665.401 53.33,665.177 53.33,664.901C53.33,664.626 53.543,664.402 53.805,664.402L64.885,664.402ZM50.561,657.827C50.298,657.827 50.086,658.051 50.086,658.326C50.086,658.602 50.298,658.826 50.561,658.826C51.041,658.826 51.431,659.236 51.431,659.741C51.431,660.246 51.041,660.657 50.561,660.657C50.081,660.657 49.69,660.246 49.69,659.741C49.69,659.465 49.477,659.242 49.215,659.242C48.953,659.242 48.74,659.465 48.74,659.741C48.74,660.797 49.557,661.655 50.561,661.655C51.564,661.655 52.381,660.797 52.381,659.741C52.381,658.686 51.564,657.827 50.561,657.827ZM64.885,659.242C65.147,659.242 65.359,659.466 65.359,659.741C65.359,660.017 65.147,660.241 64.885,660.241L53.805,660.241C53.543,660.241 53.33,660.017 53.33,659.741C53.33,659.466 53.543,659.242 53.805,659.242L64.885,659.242ZM50.561,652.667C49.557,652.667 48.74,653.526 48.74,654.581C48.74,655.637 49.557,656.496 50.561,656.496C51.564,656.496 52.381,655.637 52.381,654.581C52.381,653.526 51.564,652.667 50.561,652.667ZM50.561,655.497C50.081,655.497 49.69,655.086 49.69,654.581C49.69,654.076 50.081,653.666 50.561,653.666C51.041,653.666 51.431,654.076 51.431,654.581C51.431,655.086 51.041,655.497 50.561,655.497ZM64.885,654.082C65.147,654.082 65.359,654.306 65.359,654.581C65.359,654.857 65.147,655.08 64.885,655.08L53.805,655.08C53.543,655.08 53.33,654.857 53.33,654.581C53.33,654.306 53.543,654.082 53.805,654.082L64.885,654.082Z" style="fill:white;fill-opacity:0.8;"/>
    </g>
</svg>
