<?xml version="1.0" encoding="UTF-8" standalone="no"?>
<!DOCTYPE svg PUBLIC "-//W3C//DTD SVG 1.1//EN" "http://www.w3.org/Graphics/SVG/1.1/DTD/svg11.dtd">
<svg width="100%" height="100%" viewBox="0 0 169 121" version="1.1" xmlns="http://www.w3.org/2000/svg" xmlns:xlink="http://www.w3.org/1999/xlink" xml:space="preserve" xmlns:serif="http://www.serif.com/" style="fill-rule:evenodd;clip-rule:evenodd;stroke-linejoin:round;stroke-miterlimit:1.41421;">
    <g id="_-" serif:id="" transform="matrix(5.04103,0,0,5.14423,0,124.318)">
        <path d="M11.667,-14.166L10,-12.5L15.019,-7.519L11.667,-4.167L3.333,-12.5L11.667,-20.833L12.917,-19.583L14.583,-21.25L11.667,-24.166L0,-12.5L11.667,-0.833L18.333,-7.5L11.667,-14.166ZM21.666,-24.166L15,-17.5L21.666,-10.833L23.333,-12.5L18.314,-17.48L21.666,-20.833L30,-12.5L21.666,-4.167L20.416,-5.417L18.75,-3.75L21.666,-0.833L33.333,-12.5L21.666,-24.166Z" style="fill:white;fill-rule:nonzero;"/>
    </g>
</svg>
