<?xml version="1.0" encoding="UTF-8" standalone="no"?>
<!DOCTYPE svg PUBLIC "-//W3C//DTD SVG 1.1//EN" "http://www.w3.org/Graphics/SVG/1.1/DTD/svg11.dtd">
<svg width="100%" height="100%" viewBox="0 0 24 24" version="1.1" xmlns="http://www.w3.org/2000/svg" xmlns:xlink="http://www.w3.org/1999/xlink" xml:space="preserve" xmlns:serif="http://www.serif.com/" style="fill-rule:evenodd;clip-rule:evenodd;stroke-linejoin:round;stroke-miterlimit:1.41421;">
    <g id="Forma-1" serif:id="Forma 1" transform="matrix(1,0,0,1,-1318.99,-36)">
        <path d="M1339.52,41.456C1339.2,41.144 1338.82,40.988 1338.38,40.988L1323.6,40.988C1323.16,40.988 1322.78,41.144 1322.47,41.456C1322.15,41.768 1321.99,42.143 1321.99,42.582L1321.99,53.418C1321.99,53.856 1322.15,54.231 1322.47,54.543C1322.78,54.856 1323.16,55.012 1323.6,55.012L1338.38,55.012C1338.82,55.012 1339.2,54.856 1339.52,54.543C1339.83,54.231 1339.99,53.856 1339.99,53.418L1339.99,42.582C1339.99,42.143 1339.83,41.768 1339.52,41.456ZM1338.7,53.418C1338.7,53.504 1338.67,53.579 1338.61,53.642C1338.54,53.705 1338.47,53.736 1338.38,53.736L1323.6,53.736C1323.51,53.736 1323.44,53.705 1323.38,53.642C1323.31,53.579 1323.28,53.504 1323.28,53.418L1323.28,45.769C1323.49,46.008 1323.72,46.227 1323.97,46.426C1325.77,47.794 1327.19,48.916 1328.25,49.793C1328.59,50.078 1328.87,50.3 1329.08,50.46C1329.3,50.619 1329.59,50.78 1329.95,50.943C1330.32,51.106 1330.66,51.187 1330.98,51.187L1331,51.187C1331.32,51.187 1331.67,51.106 1332.03,50.943C1332.39,50.78 1332.68,50.619 1332.9,50.46C1333.11,50.3 1333.39,50.078 1333.73,49.793C1334.79,48.916 1336.22,47.794 1338.01,46.426C1338.26,46.227 1338.49,46.008 1338.7,45.769L1338.7,53.418ZM1338.7,42.84L1338.7,42.95C1338.7,43.342 1338.55,43.778 1338.24,44.26C1337.92,44.741 1337.59,45.125 1337.23,45.41C1335.93,46.419 1334.59,47.472 1333.2,48.567C1333.16,48.601 1333.04,48.699 1332.85,48.861C1332.65,49.024 1332.5,49.148 1332.39,49.235C1332.27,49.321 1332.12,49.426 1331.94,49.548C1331.76,49.671 1331.59,49.763 1331.43,49.822C1331.28,49.882 1331.13,49.912 1331,49.912L1330.99,49.912L1330.98,49.912C1330.85,49.912 1330.7,49.882 1330.55,49.822C1330.39,49.763 1330.23,49.671 1330.04,49.548C1329.86,49.426 1329.71,49.321 1329.6,49.235C1329.48,49.148 1329.33,49.024 1329.13,48.861C1328.94,48.699 1328.82,48.601 1328.78,48.567C1327.39,47.472 1326.05,46.419 1324.76,45.41C1323.77,44.64 1323.28,43.697 1323.28,42.581C1323.28,42.495 1323.31,42.42 1323.38,42.357C1323.44,42.294 1323.51,42.263 1323.6,42.263L1338.38,42.263C1338.43,42.293 1338.48,42.301 1338.52,42.288C1338.56,42.274 1338.59,42.299 1338.61,42.362C1338.63,42.425 1338.65,42.455 1338.67,42.452C1338.68,42.449 1338.69,42.49 1338.7,42.576L1338.7,42.84Z" style="fill:white;fill-rule:nonzero;"/>
    </g>
</svg>
