<?xml version="1.0" encoding="UTF-8" standalone="no"?>
<!DOCTYPE svg PUBLIC "-//W3C//DTD SVG 1.1//EN" "http://www.w3.org/Graphics/SVG/1.1/DTD/svg11.dtd">
<svg width="100%" height="100%" viewBox="0 0 72 50" version="1.1" xmlns="http://www.w3.org/2000/svg" xmlns:xlink="http://www.w3.org/1999/xlink" xml:space="preserve" xmlns:serif="http://www.serif.com/" style="fill-rule:evenodd;clip-rule:evenodd;stroke-linejoin:round;stroke-miterlimit:1.41421;">
    <g transform="matrix(1,0,0,1,-21.4305,-15.7144)">
        <g id="Company" transform="matrix(1,0,0,1,57.0833,65)">
            <g transform="matrix(1,0,0,1,-35.3062,-0.104384)">
                <path d="M7.431,-3.685L9.393,-3.063C9.092,-1.969 8.592,-1.156 7.892,-0.625C7.193,-0.095 6.305,0.171 5.229,0.171C3.899,0.171 2.805,-0.284 1.948,-1.193C1.091,-2.102 0.663,-3.345 0.663,-4.922C0.663,-6.59 1.094,-7.885 1.955,-8.808C2.816,-9.731 3.949,-10.192 5.353,-10.192C6.578,-10.192 7.574,-9.83 8.34,-9.105C8.796,-8.677 9.137,-8.062 9.365,-7.26L7.362,-6.781C7.244,-7.301 6.997,-7.711 6.621,-8.012C6.245,-8.313 5.788,-8.463 5.25,-8.463C4.507,-8.463 3.904,-8.196 3.442,-7.663C2.979,-7.13 2.748,-6.266 2.748,-5.072C2.748,-3.805 2.976,-2.903 3.432,-2.365C3.887,-1.827 4.48,-1.559 5.209,-1.559C5.747,-1.559 6.209,-1.729 6.597,-2.071C6.984,-2.413 7.262,-2.951 7.431,-3.685Z" style="fill:white;fill-opacity:0.8;fill-rule:nonzero;"/>
            </g>
            <g transform="matrix(1,0,0,1,-24.7042,-0.104384)">
                <path d="M0.608,-4.949C0.608,-5.97 0.761,-6.827 1.066,-7.52C1.294,-8.03 1.605,-8.488 2,-8.894C2.394,-9.299 2.826,-9.6 3.295,-9.796C3.919,-10.06 4.639,-10.192 5.455,-10.192C6.932,-10.192 8.113,-9.734 9,-8.818C9.886,-7.902 10.329,-6.629 10.329,-4.997C10.329,-3.379 9.889,-2.113 9.01,-1.2C8.13,-0.286 6.954,0.171 5.482,0.171C3.992,0.171 2.807,-0.284 1.928,-1.193C1.048,-2.102 0.608,-3.354 0.608,-4.949ZM2.693,-5.018C2.693,-3.883 2.955,-3.023 3.479,-2.437C4.004,-1.851 4.669,-1.559 5.476,-1.559C6.282,-1.559 6.944,-1.849 7.461,-2.43C7.979,-3.011 8.237,-3.883 8.237,-5.045C8.237,-6.193 7.986,-7.05 7.482,-7.615C6.978,-8.18 6.31,-8.463 5.476,-8.463C4.642,-8.463 3.969,-8.177 3.459,-7.605C2.949,-7.033 2.693,-6.171 2.693,-5.018Z" style="fill:white;fill-opacity:0.8;fill-rule:nonzero;"/>
                <path d="M11.881,0L11.881,-10.021L14.909,-10.021L16.728,-3.186L18.525,-10.021L21.561,-10.021L21.561,0L19.681,0L19.681,-7.889L17.691,0L15.743,0L13.761,-7.889L13.761,0L11.881,0Z" style="fill:white;fill-opacity:0.8;fill-rule:nonzero;"/>
                <path d="M23.57,0L23.57,-10.021L26.817,-10.021C28.048,-10.021 28.85,-9.971 29.224,-9.871C29.798,-9.721 30.279,-9.394 30.666,-8.89C31.053,-8.387 31.247,-7.736 31.247,-6.938C31.247,-6.323 31.135,-5.806 30.912,-5.387C30.689,-4.967 30.405,-4.638 30.061,-4.399C29.717,-4.16 29.367,-4.001 29.012,-3.924C28.529,-3.828 27.829,-3.78 26.913,-3.78L25.594,-3.78L25.594,0L23.57,0ZM25.594,-8.326L25.594,-5.482L26.701,-5.482C27.499,-5.482 28.032,-5.535 28.301,-5.64C28.57,-5.744 28.78,-5.909 28.933,-6.132C29.086,-6.355 29.162,-6.615 29.162,-6.911C29.162,-7.276 29.055,-7.576 28.841,-7.813C28.627,-8.05 28.355,-8.199 28.027,-8.258C27.786,-8.303 27.3,-8.326 26.571,-8.326L25.594,-8.326Z" style="fill:white;fill-opacity:0.8;fill-rule:nonzero;"/>
                <path d="M40.906,0L38.705,0L37.83,-2.276L33.824,-2.276L32.997,0L30.851,0L34.754,-10.021L36.894,-10.021L40.906,0ZM37.181,-3.965L35.8,-7.684L34.446,-3.965L37.181,-3.965Z" style="fill:white;fill-opacity:0.8;fill-rule:nonzero;"/>
                <path d="M42,0L42,-10.021L43.969,-10.021L48.07,-3.329L48.07,-10.021L49.95,-10.021L49.95,0L47.92,0L43.88,-6.535L43.88,0L42,0Z" style="fill:white;fill-opacity:0.8;fill-rule:nonzero;"/>
                <path d="M54.722,0L54.722,-4.218L51.051,-10.021L53.423,-10.021L55.781,-6.057L58.092,-10.021L60.423,-10.021L56.738,-4.204L56.738,0L54.722,0Z" style="fill:white;fill-opacity:0.8;fill-rule:nonzero;"/>
            </g>
        </g>
        <path id="LOGO" d="M49.088,30.081L55.143,36.217L51.099,40.343L41.043,30.081L51.099,19.819L52.608,21.358L54.619,19.306L51.099,15.714L37.021,30.081L51.099,44.448L59.144,36.238L51.099,28.029L49.088,30.081ZM55.122,23.924L63.166,32.133L65.178,30.081L59.123,23.945L63.166,19.819L73.222,30.081L63.166,40.343L61.658,38.804L59.647,40.856L63.166,44.448L77.245,30.081L63.166,15.714L55.122,23.924Z" style="fill:white;fill-rule:nonzero;"/>
    </g>
</svg>
