<?xml version="1.0" encoding="UTF-8" standalone="no"?>
<!DOCTYPE svg PUBLIC "-//W3C//DTD SVG 1.1//EN" "http://www.w3.org/Graphics/SVG/1.1/DTD/svg11.dtd">
<svg width="100%" height="100%" viewBox="0 0 350 80" version="1.1" xmlns="http://www.w3.org/2000/svg" xmlns:xlink="http://www.w3.org/1999/xlink" xml:space="preserve" xmlns:serif="http://www.serif.com/" style="fill-rule:evenodd;clip-rule:evenodd;stroke-linejoin:round;stroke-miterlimit:1.41421;">
    <g transform="matrix(1.02458,0,0,0.987167,-756.111,-209.268)">
        <g id="COMPANY" transform="matrix(1,0,0,1,878.5,264.837)">
            <g transform="matrix(1,0,0,1,-4.37391,0)">
                <path d="M21.23,-10.527L26.836,-8.75C25.977,-5.625 24.548,-3.304 22.549,-1.787C20.55,-0.27 18.014,0.488 14.941,0.488C11.139,0.488 8.014,-0.811 5.566,-3.408C3.118,-6.006 1.895,-9.557 1.895,-14.063C1.895,-18.828 3.125,-22.529 5.586,-25.166C8.047,-27.803 11.283,-29.121 15.293,-29.121C18.796,-29.121 21.641,-28.086 23.828,-26.016C25.13,-24.792 26.107,-23.034 26.758,-20.742L21.035,-19.375C20.697,-20.859 19.99,-22.031 18.916,-22.891C17.842,-23.75 16.536,-24.18 15,-24.18C12.878,-24.18 11.156,-23.418 9.834,-21.895C8.512,-20.371 7.852,-17.904 7.852,-14.492C7.852,-10.872 8.503,-8.294 9.805,-6.758C11.107,-5.221 12.799,-4.453 14.883,-4.453C16.419,-4.453 17.741,-4.941 18.848,-5.918C19.954,-6.895 20.749,-8.431 21.23,-10.527Z" style="fill:white;fill-rule:nonzero;"/>
            </g>
            <g transform="matrix(1,0,0,1,30.996,0)">
                <g transform="matrix(1,0,0,1,-5.07691,0)">
                    <path d="M1.738,-14.141C1.738,-17.057 2.174,-19.505 3.047,-21.484C3.698,-22.943 4.587,-24.251 5.713,-25.41C6.839,-26.569 8.073,-27.428 9.414,-27.988C11.198,-28.743 13.255,-29.121 15.586,-29.121C19.805,-29.121 23.18,-27.813 25.713,-25.195C28.245,-22.578 29.512,-18.939 29.512,-14.277C29.512,-9.655 28.255,-6.038 25.742,-3.428C23.229,-0.817 19.87,0.488 15.664,0.488C11.406,0.488 8.021,-0.811 5.508,-3.408C2.995,-6.006 1.738,-9.583 1.738,-14.141ZM7.695,-14.336C7.695,-11.094 8.444,-8.636 9.941,-6.963C11.439,-5.29 13.34,-4.453 15.645,-4.453C17.949,-4.453 19.84,-5.283 21.318,-6.943C22.796,-8.604 23.535,-11.094 23.535,-14.414C23.535,-17.695 22.816,-20.143 21.377,-21.758C19.938,-23.372 18.027,-24.18 15.645,-24.18C13.262,-24.18 11.341,-23.363 9.883,-21.729C8.424,-20.094 7.695,-17.63 7.695,-14.336Z" style="fill:white;fill-rule:nonzero;"/>
                    <path d="M33.945,0L33.945,-28.633L42.598,-28.633L47.793,-9.102L52.93,-28.633L61.602,-28.633L61.602,0L56.23,0L56.23,-22.539L50.547,0L44.98,0L39.316,-22.539L39.316,0L33.945,0Z" style="fill:white;fill-rule:nonzero;"/>
                    <path d="M67.344,0L67.344,-28.633L76.621,-28.633C80.137,-28.633 82.428,-28.49 83.496,-28.203C85.137,-27.773 86.51,-26.839 87.617,-25.4C88.724,-23.962 89.277,-22.103 89.277,-19.824C89.277,-18.066 88.958,-16.589 88.32,-15.391C87.682,-14.193 86.872,-13.252 85.889,-12.568C84.906,-11.885 83.906,-11.432 82.891,-11.211C81.51,-10.938 79.512,-10.801 76.895,-10.801L73.125,-10.801L73.125,0L67.344,0ZM73.125,-23.789L73.125,-15.664L76.289,-15.664C78.568,-15.664 80.091,-15.814 80.859,-16.113C81.628,-16.413 82.23,-16.882 82.666,-17.52C83.102,-18.158 83.32,-18.9 83.32,-19.746C83.32,-20.788 83.014,-21.647 82.402,-22.324C81.79,-23.001 81.016,-23.424 80.078,-23.594C79.388,-23.724 78.001,-23.789 75.918,-23.789L73.125,-23.789Z" style="fill:white;fill-rule:nonzero;"/>
                </g>
                <g transform="matrix(1,0,0,1,83.0681,0)">
                    <path d="M28.73,0L22.441,0L19.941,-6.504L8.496,-6.504L6.133,0L0,0L11.152,-28.633L17.266,-28.633L28.73,0ZM18.086,-11.328L14.141,-21.953L10.273,-11.328L18.086,-11.328Z" style="fill:white;fill-rule:nonzero;"/>
                    <path d="M31.855,0L31.855,-28.633L37.48,-28.633L49.199,-9.512L49.199,-28.633L54.57,-28.633L54.57,0L48.77,0L37.227,-18.672L37.227,0L31.855,0Z" style="fill:white;fill-rule:nonzero;"/>
                    <path d="M68.203,0L68.203,-12.051L57.715,-28.633L64.492,-28.633L71.23,-17.305L77.832,-28.633L84.492,-28.633L73.965,-12.012L73.965,0L68.203,0Z" style="fill:white;fill-rule:nonzero;"/>
                </g>
            </g>
        </g>
        <path id="LOGO" d="M772.175,252.508L789.337,269.814L777.876,281.451L749.372,252.508L777.876,223.565L782.151,227.906L787.852,222.118L777.876,211.988L737.971,252.508L777.876,293.028L800.679,269.874L777.876,246.719L772.175,252.508ZM789.277,235.142L812.08,258.297L817.781,252.508L800.619,235.203L812.08,223.565L840.584,252.508L812.08,281.451L807.805,277.11L802.104,282.898L812.08,293.028L851.985,252.508L812.08,211.988L789.277,235.142Z" style="fill:white;fill-rule:nonzero;"/>
    </g>
</svg>
