<?xml version="1.0" encoding="UTF-8" standalone="no"?>
<!DOCTYPE svg PUBLIC "-//W3C//DTD SVG 1.1//EN" "http://www.w3.org/Graphics/SVG/1.1/DTD/svg11.dtd">
<svg width="100%" height="100%" viewBox="0 0 24 24" version="1.1" xmlns="http://www.w3.org/2000/svg" xmlns:xlink="http://www.w3.org/1999/xlink" xml:space="preserve" xmlns:serif="http://www.serif.com/" style="fill-rule:evenodd;clip-rule:evenodd;stroke-linejoin:round;stroke-miterlimit:1.41421;">
    <g id="Shape-1" serif:id="Shape 1" transform="matrix(1.17239,0,0,1.17239,-1618.16,-43.1023)">
        <path d="M1397.4,51.178C1396.26,49.985 1395.61,48.367 1395.61,46.68L1395.61,45.102C1395.61,42.592 1393.95,40.485 1391.71,39.904L1391.71,38.3C1391.71,37.582 1391.15,37 1390.46,37C1389.77,37 1389.21,37.582 1389.21,38.3L1389.21,39.904C1386.97,40.485 1385.31,42.592 1385.31,45.102L1385.31,46.68C1385.31,48.367 1384.66,49.985 1383.51,51.178C1383.01,51.703 1382.86,52.491 1383.13,53.176C1383.4,53.862 1384.05,54.308 1384.76,54.308L1387.87,54.308C1387.87,55.795 1389.03,57 1390.46,57C1391.89,57 1393.05,55.795 1393.05,54.308L1396.16,54.308C1396.87,54.308 1397.52,53.862 1397.79,53.176C1398.06,52.491 1397.91,51.703 1397.4,51.178ZM1390.46,55.679C1389.73,55.679 1389.14,55.064 1389.14,54.308L1391.78,54.308C1391.78,55.064 1391.19,55.679 1390.46,55.679ZM1396.61,52.671C1396.54,52.863 1396.36,52.987 1396.16,52.987L1384.76,52.987C1384.56,52.987 1384.38,52.863 1384.3,52.671C1384.23,52.479 1384.27,52.26 1384.41,52.112C1385.81,50.661 1386.58,48.732 1386.58,46.68L1386.58,45.102C1386.58,42.876 1388.32,41.066 1390.46,41.066C1392.6,41.066 1394.34,42.876 1394.34,45.102L1394.34,46.68C1394.34,48.732 1395.11,50.661 1396.51,52.112C1396.65,52.26 1396.69,52.479 1396.61,52.671Z" style="fill:white;fill-rule:nonzero;"/>
    </g>
</svg>
