<?xml version="1.0" encoding="UTF-8" standalone="no"?>
<!DOCTYPE svg PUBLIC "-//W3C//DTD SVG 1.1//EN" "http://www.w3.org/Graphics/SVG/1.1/DTD/svg11.dtd">
<svg width="100%" height="100%" viewBox="0 0 23 21" version="1.1" xmlns="http://www.w3.org/2000/svg" xmlns:xlink="http://www.w3.org/1999/xlink" xml:space="preserve" xmlns:serif="http://www.serif.com/" style="fill-rule:evenodd;clip-rule:evenodd;stroke-linejoin:round;stroke-miterlimit:1.41421;">
    <g transform="matrix(1,0,0,1,-311.99,-431.022)">
        <path id="Forma-1" serif:id="Forma 1" d="M328.191,431.159C327.574,430.843 326.82,431.091 326.506,431.712L317.184,450.155C316.87,450.775 317.116,451.534 317.733,451.85C317.915,451.943 318.109,451.987 318.3,451.987C318.757,451.987 319.197,451.735 319.418,451.297L328.74,432.854C329.054,432.234 328.808,431.475 328.191,431.159ZM329.237,440.995C326.616,440.995 324.483,443.14 324.483,445.776C324.483,448.413 326.616,450.558 329.237,450.558C331.858,450.558 333.99,448.413 333.99,445.776C333.99,443.14 331.858,440.995 329.237,440.995ZM329.237,448.037C327.998,448.037 326.99,447.023 326.99,445.776C326.99,444.53 327.998,443.516 329.237,443.516C330.476,443.516 331.484,444.53 331.484,445.776C331.484,447.023 330.476,448.037 329.237,448.037ZM321.498,437.232C321.498,434.596 319.365,432.451 316.744,432.451C314.123,432.451 311.99,434.596 311.99,437.232C311.99,439.869 314.123,442.014 316.744,442.014C319.365,442.014 321.498,439.869 321.498,437.232ZM316.744,439.493C315.505,439.493 314.497,438.479 314.497,437.232C314.497,435.986 315.505,434.972 316.744,434.972C317.983,434.972 318.991,435.986 318.991,437.232C318.991,438.479 317.983,439.493 316.744,439.493Z" style="fill:rgb(121,117,239);"/>
    </g>
</svg>
