<?xml version="1.0" encoding="UTF-8" standalone="no"?>
<!DOCTYPE svg PUBLIC "-//W3C//DTD SVG 1.1//EN" "http://www.w3.org/Graphics/SVG/1.1/DTD/svg11.dtd">
<svg width="100%" height="100%" viewBox="0 0 18 18" version="1.1" xmlns="http://www.w3.org/2000/svg" xmlns:xlink="http://www.w3.org/1999/xlink" xml:space="preserve" xmlns:serif="http://www.serif.com/" style="fill-rule:evenodd;clip-rule:evenodd;stroke-linejoin:round;stroke-miterlimit:1.41421;">
    <g transform="matrix(1,0,0,1,-137,-35.0006)">
        <path id="Forma-1" serif:id="Forma 1" d="M154.773,51.967L150.14,47.408C151.353,46.09 152.099,44.347 152.099,42.429C152.098,38.326 148.719,35.001 144.549,35.001C140.38,35.001 137,38.326 137,42.429C137,46.532 140.38,49.858 144.549,49.858C146.35,49.858 148.003,49.235 149.301,48.199L153.951,52.776C154.178,52.999 154.545,52.999 154.772,52.776C154.999,52.552 154.999,52.19 154.773,51.967ZM144.549,48.715C141.022,48.715 138.162,45.901 138.162,42.429C138.162,38.958 141.022,36.144 144.549,36.144C148.077,36.144 150.937,38.958 150.937,42.429C150.937,45.901 148.077,48.715 144.549,48.715Z" style="fill:white;fill-rule:nonzero;"/>
    </g>
</svg>
