<?xml version="1.0" encoding="UTF-8" standalone="no"?>
<!DOCTYPE svg PUBLIC "-//W3C//DTD SVG 1.1//EN" "http://www.w3.org/Graphics/SVG/1.1/DTD/svg11.dtd">
<svg width="100%" height="100%" viewBox="0 0 24 25" version="1.1" xmlns="http://www.w3.org/2000/svg" xmlns:xlink="http://www.w3.org/1999/xlink" xml:space="preserve" xmlns:serif="http://www.serif.com/" style="fill-rule:evenodd;clip-rule:evenodd;stroke-linejoin:round;stroke-miterlimit:1.41421;">
    <g transform="matrix(1,0,0,1,-1530.27,-109.76)">
        <g transform="matrix(1,0,0,1,0.239942,-0.239942)">
            <path id="Shape-1" serif:id="Shape 1" d="M1543.04,110C1543.77,110.005 1544.38,110.525 1544.5,111.238L1544.78,112.903C1545.37,113.078 1545.93,113.314 1546.47,113.6L1547.87,112.607C1548.12,112.427 1548.41,112.331 1548.72,112.331C1549.12,112.331 1549.49,112.487 1549.77,112.767L1551.26,114.261C1551.78,114.773 1551.85,115.58 1551.42,116.172L1550.43,117.56C1550.71,118.082 1550.93,118.628 1551.11,119.195L1552.79,119.481C1553.51,119.601 1554.03,120.218 1554.02,120.945L1554.02,123.055C1554.02,123.782 1553.5,124.399 1552.78,124.519L1551.1,124.8C1550.93,125.362 1550.7,125.908 1550.42,126.435L1551.41,127.828C1551.84,128.42 1551.77,129.227 1551.25,129.738L1549.76,131.232C1549.48,131.513 1549.11,131.669 1548.71,131.669C1548.4,131.669 1548.1,131.573 1547.85,131.393L1546.46,130.4C1545.94,130.676 1545.39,130.902 1544.83,131.077L1544.54,132.762C1544.42,133.479 1543.81,134 1543.08,134L1540.97,134C1540.24,134 1539.62,133.479 1539.5,132.762L1539.22,131.077C1538.67,130.907 1538.14,130.691 1537.64,130.425L1536.23,131.428C1535.98,131.608 1535.68,131.704 1535.37,131.704C1534.98,131.704 1534.61,131.548 1534.33,131.268L1532.83,129.773C1532.32,129.262 1532.25,128.455 1532.67,127.863L1533.66,126.49C1533.38,125.968 1533.15,125.422 1532.97,124.86L1531.27,124.569C1530.55,124.449 1530.03,123.832 1530.03,123.105L1530.03,120.995C1530.03,120.268 1530.55,119.651 1531.27,119.531L1532.93,119.25C1533.1,118.683 1533.32,118.137 1533.6,117.611L1532.6,116.202C1532.17,115.61 1532.25,114.803 1532.76,114.292L1534.26,112.798C1534.53,112.517 1534.91,112.361 1535.3,112.361C1535.61,112.361 1535.91,112.457 1536.16,112.637L1537.54,113.63C1538.06,113.349 1538.61,113.118 1539.17,112.943L1539.46,111.238C1539.58,110.525 1540.19,110.005 1540.92,110L1543.04,110ZM1552.68,123.055L1552.68,120.945C1552.68,120.879 1552.64,120.824 1552.57,120.814L1550.47,120.458C1550.21,120.418 1549.99,120.223 1549.93,119.962C1549.74,119.225 1549.44,118.518 1549.05,117.861C1548.92,117.631 1548.93,117.34 1549.08,117.124L1550.32,115.385C1550.36,115.329 1550.35,115.259 1550.31,115.214L1548.81,113.72C1548.78,113.685 1548.74,113.68 1548.72,113.68C1548.69,113.68 1548.67,113.69 1548.64,113.705L1546.91,114.948C1546.69,115.104 1546.41,115.114 1546.18,114.978C1545.51,114.582 1544.78,114.287 1544.03,114.096C1543.77,114.031 1543.57,113.815 1543.53,113.55L1543.17,111.459C1543.16,111.394 1543.11,111.349 1543.05,111.349L1540.93,111.349C1540.87,111.349 1540.82,111.394 1540.81,111.459L1540.44,113.58C1540.4,113.84 1540.2,114.051 1539.95,114.121C1539.21,114.312 1538.5,114.612 1537.85,115.004C1537.62,115.139 1537.33,115.129 1537.11,114.973L1535.38,113.74C1535.36,113.725 1535.34,113.715 1535.31,113.715C1535.28,113.715 1535.25,113.72 1535.21,113.755L1533.72,115.249C1533.67,115.294 1533.67,115.37 1533.7,115.42L1534.95,117.174C1535.11,117.39 1535.12,117.676 1534.99,117.906C1534.6,118.563 1534.32,119.275 1534.13,120.012C1534.06,120.273 1533.85,120.468 1533.58,120.513L1531.49,120.864C1531.43,120.874 1531.38,120.93 1531.38,120.995L1531.38,123.105C1531.38,123.171 1531.43,123.226 1531.49,123.236L1533.61,123.597C1533.87,123.642 1534.08,123.837 1534.15,124.093C1534.35,124.83 1534.65,125.537 1535.04,126.189C1535.17,126.419 1535.16,126.71 1535.01,126.931L1533.77,128.66C1533.74,128.716 1533.74,128.786 1533.79,128.831L1535.28,130.325C1535.32,130.36 1535.36,130.365 1535.38,130.365C1535.4,130.365 1535.43,130.355 1535.45,130.34L1537.21,129.092C1537.32,129.006 1537.46,128.966 1537.6,128.966C1537.71,128.966 1537.83,128.996 1537.94,129.057C1538.59,129.428 1539.28,129.713 1539.99,129.899C1540.25,129.964 1540.44,130.175 1540.49,130.44L1540.84,132.546C1540.85,132.611 1540.9,132.656 1540.97,132.656L1543.08,132.656C1543.15,132.652 1543.2,132.608 1543.21,132.546L1543.57,130.44C1543.61,130.18 1543.8,129.964 1544.06,129.899C1544.8,129.708 1545.51,129.418 1546.16,129.026C1546.39,128.891 1546.68,128.901 1546.9,129.057L1548.64,130.295C1548.66,130.31 1548.68,130.32 1548.71,130.32C1548.74,130.32 1548.77,130.315 1548.81,130.28L1550.3,128.786C1550.35,128.741 1550.35,128.665 1550.32,128.615L1549.08,126.871C1548.92,126.65 1548.91,126.364 1549.05,126.134C1549.44,125.477 1549.73,124.77 1549.92,124.033C1549.99,123.777 1550.2,123.582 1550.46,123.537L1552.57,123.186C1552.63,123.176 1552.67,123.125 1552.68,123.055L1552.68,123.055ZM1542.03,116.818C1539.17,116.818 1536.85,119.14 1536.85,121.997C1536.85,124.855 1539.17,127.176 1542.03,127.176C1544.88,127.176 1547.2,124.855 1547.2,121.997C1547.2,119.14 1544.88,116.818 1542.03,116.818ZM1542.03,125.823C1539.92,125.823 1538.2,124.108 1538.2,121.997C1538.2,119.887 1539.92,118.172 1542.03,118.172C1544.14,118.172 1545.85,119.887 1545.85,121.997C1545.85,124.108 1544.14,125.823 1542.03,125.823Z" style="fill:rgb(129,121,149);"/>
        </g>
    </g>
</svg>
