<?xml version="1.0" encoding="UTF-8" standalone="no"?>
<!DOCTYPE svg PUBLIC "-//W3C//DTD SVG 1.1//EN" "http://www.w3.org/Graphics/SVG/1.1/DTD/svg11.dtd">
<svg width="32" height="32" viewBox="0 0 32 32" version="1.1" xmlns="http://www.w3.org/2000/svg" xmlns:xlink="http://www.w3.org/1999/xlink" xml:space="preserve" xmlns:serif="http://www.serif.com/" style="fill-rule:evenodd;clip-rule:evenodd;stroke-linejoin:round;stroke-miterlimit:1.41421;">
    <g id="Shape-1" serif:id="Shape 1" transform="matrix(1,0,0,1,-40.9995,-284.495)">
        <path d="M58.043,288.225C58.648,288.229 59.165,288.698 59.253,289.319C59.318,289.779 59.381,290.253 59.44,290.727C59.447,290.784 59.484,290.831 59.534,290.845C60.287,291.063 61.014,291.38 61.694,291.786C61.74,291.814 61.797,291.808 61.841,291.773C62.201,291.482 62.564,291.194 62.92,290.916C63.403,290.541 64.087,290.596 64.512,291.043L65.987,292.594C66.412,293.041 66.464,293.761 66.107,294.268C65.843,294.643 65.569,295.025 65.293,295.403C65.259,295.449 65.254,295.51 65.28,295.557C65.666,296.273 65.967,297.037 66.175,297.829C66.189,297.881 66.233,297.92 66.287,297.928C66.737,297.989 67.187,298.056 67.626,298.125C68.219,298.218 68.666,298.765 68.666,299.397L68.666,301.591C68.666,302.223 68.219,302.771 67.626,302.864C67.187,302.933 66.737,302.999 66.287,303.061C66.233,303.068 66.189,303.107 66.175,303.16C65.967,303.952 65.666,304.716 65.28,305.431C65.254,305.479 65.259,305.54 65.292,305.586C65.569,305.964 65.843,306.346 66.107,306.721C66.464,307.228 66.412,307.947 65.987,308.395L64.512,309.946C64.087,310.393 63.403,310.447 62.92,310.072C62.564,309.795 62.201,309.507 61.841,309.215C61.797,309.18 61.74,309.175 61.694,309.202C61.014,309.609 60.287,309.925 59.534,310.144C59.484,310.158 59.447,310.204 59.44,310.262C59.381,310.735 59.318,311.208 59.253,311.67C59.164,312.293 58.644,312.764 58.043,312.764L55.957,312.764C55.355,312.764 54.835,312.293 54.746,311.67C54.681,311.209 54.618,310.736 54.559,310.262C54.552,310.204 54.515,310.158 54.465,310.144C53.712,309.925 52.985,309.609 52.305,309.202C52.26,309.175 52.202,309.18 52.158,309.216C51.798,309.507 51.435,309.795 51.079,310.072C50.597,310.448 49.913,310.393 49.488,309.946L48.013,308.395C47.587,307.948 47.536,307.228 47.892,306.721C48.156,306.346 48.43,305.964 48.707,305.586C48.74,305.54 48.745,305.479 48.72,305.431C48.333,304.716 48.032,303.952 47.825,303.16C47.811,303.107 47.767,303.068 47.712,303.061C47.263,302.999 46.812,302.933 46.373,302.864C45.78,302.771 45.333,302.224 45.333,301.591L45.333,299.397C45.333,298.765 45.78,298.218 46.373,298.125C46.812,298.056 47.263,297.989 47.712,297.928C47.767,297.92 47.811,297.881 47.825,297.829C48.032,297.037 48.333,296.273 48.72,295.557C48.745,295.509 48.741,295.449 48.707,295.403C48.431,295.026 48.157,294.644 47.892,294.268C47.536,293.761 47.587,293.041 48.013,292.594L49.488,291.043C49.913,290.596 50.597,290.541 51.079,290.916C51.435,291.194 51.799,291.482 52.158,291.773C52.202,291.808 52.26,291.814 52.305,291.786C52.985,291.38 53.712,291.063 54.465,290.845C54.515,290.831 54.552,290.784 54.559,290.727C54.618,290.253 54.681,289.78 54.747,289.319C54.835,288.698 55.351,288.229 55.957,288.225L58.043,288.225ZM67.577,301.591L67.577,299.398C67.577,299.328 67.529,299.268 67.465,299.258C67.033,299.19 66.589,299.125 66.147,299.064C65.656,298.997 65.255,298.632 65.125,298.133C64.941,297.433 64.675,296.757 64.333,296.124C64.09,295.674 64.128,295.117 64.429,294.704C64.701,294.332 64.971,293.956 65.231,293.586C65.269,293.532 65.263,293.454 65.216,293.405L63.741,291.853C63.695,291.804 63.62,291.797 63.568,291.838C63.218,292.111 62.86,292.394 62.505,292.682C62.114,292.999 61.584,293.038 61.156,292.783C60.554,292.423 59.911,292.143 59.245,291.95C58.771,291.812 58.424,291.391 58.36,290.875C58.302,290.409 58.24,289.942 58.175,289.488C58.166,289.421 58.109,289.371 58.043,289.371L55.957,289.371C55.891,289.371 55.834,289.421 55.824,289.488C55.76,289.942 55.698,290.409 55.64,290.875C55.576,291.391 55.228,291.812 54.755,291.95C54.088,292.143 53.445,292.423 52.843,292.783C52.416,293.038 51.886,292.999 51.494,292.682C51.139,292.394 50.782,292.111 50.431,291.838C50.379,291.797 50.305,291.804 50.258,291.853L48.783,293.405C48.736,293.454 48.73,293.532 48.768,293.586C49.029,293.957 49.299,294.333 49.57,294.704C49.872,295.117 49.91,295.674 49.667,296.124C49.325,296.757 49.059,297.433 48.875,298.133C48.744,298.632 48.343,298.997 47.853,299.064C47.41,299.125 46.967,299.19 46.534,299.258C46.471,299.268 46.423,299.328 46.423,299.398L46.423,301.592C46.423,301.661 46.471,301.721 46.534,301.731C46.967,301.799 47.41,301.864 47.853,301.925C48.343,301.992 48.744,302.358 48.875,302.856C49.059,303.556 49.325,304.233 49.667,304.866C49.91,305.316 49.872,305.873 49.57,306.285C49.298,306.657 49.028,307.033 48.768,307.403C48.73,307.457 48.736,307.536 48.783,307.585L50.258,309.136C50.305,309.185 50.379,309.192 50.431,309.151C50.782,308.878 51.139,308.595 51.494,308.308C51.714,308.13 51.978,308.039 52.242,308.039C52.449,308.039 52.656,308.094 52.843,308.206C53.445,308.566 54.088,308.846 54.755,309.039C55.228,309.176 55.576,309.598 55.64,310.114C55.697,310.58 55.76,311.047 55.824,311.5C55.834,311.567 55.891,311.618 55.957,311.618L58.043,311.618C58.114,311.613 58.166,311.564 58.175,311.501C58.24,311.046 58.302,310.58 58.36,310.114C58.424,309.598 58.771,309.176 59.245,309.039C59.911,308.846 60.554,308.566 61.156,308.206C61.584,307.951 62.113,307.99 62.505,308.307C62.86,308.594 63.218,308.878 63.568,309.151C63.62,309.192 63.695,309.185 63.741,309.136L65.216,307.585C65.263,307.536 65.27,307.457 65.231,307.402C64.971,307.033 64.701,306.657 64.429,306.284C64.127,305.873 64.09,305.315 64.333,304.865C64.674,304.232 64.941,303.556 65.124,302.856C65.255,302.357 65.656,301.992 66.147,301.925C66.589,301.864 67.033,301.799 67.465,301.731C67.526,301.721 67.573,301.666 67.577,301.591ZM57,295.168C54.207,295.168 51.935,297.557 51.935,300.495C51.935,303.431 54.207,305.821 57,305.821C59.792,305.821 62.064,303.431 62.064,300.495C62.064,297.557 59.792,295.168 57,295.168ZM57,304.675C54.808,304.675 53.025,302.8 53.025,300.495C53.025,298.189 54.808,296.314 57,296.314C59.192,296.314 60.975,298.189 60.975,300.495C60.975,302.8 59.192,304.675 57,304.675Z" style="fill:white;fill-opacity:0.8;"/>
    </g>
</svg>
