<?xml version="1.0" encoding="UTF-8" standalone="no"?>
<!DOCTYPE svg PUBLIC "-//W3C//DTD SVG 1.1//EN" "http://www.w3.org/Graphics/SVG/1.1/DTD/svg11.dtd">
<svg width="100%" height="100%" viewBox="0 0 15 14" version="1.1" xmlns="http://www.w3.org/2000/svg" xmlns:xlink="http://www.w3.org/1999/xlink" xml:space="preserve" xmlns:serif="http://www.serif.com/" style="fill-rule:evenodd;clip-rule:evenodd;stroke-linejoin:round;stroke-miterlimit:1.41421;">
    <g transform="matrix(1,0,0,1,-267,-1595.06)">
        <path id="Forma-1-copy-2" serif:id="Forma 1 copy 2" d="M280.855,1607.82L280.855,1604.41C280.855,1604.09 281.111,1603.83 281.427,1603.83C281.743,1603.83 281.998,1604.09 281.998,1604.41L281.998,1608.16C281.998,1608.21 281.983,1608.25 281.974,1608.29C281.983,1608.33 281.998,1608.37 281.998,1608.41C281.998,1608.73 281.743,1609 281.427,1609L267.571,1609C267.256,1609 267,1608.73 267,1608.41C267,1608.37 267.016,1608.33 267.024,1608.29C267.016,1608.25 267,1608.21 267,1608.16L267,1604.41C267,1604.09 267.256,1603.83 267.571,1603.83C267.887,1603.83 268.143,1604.09 268.143,1604.41L268.143,1607.82L280.855,1607.82ZM274.535,1606.24C274.851,1606.24 275.106,1605.98 275.106,1605.65L275.106,1597.06L277.595,1599.62C277.706,1599.74 277.853,1599.8 277.999,1599.8C278.145,1599.8 278.291,1599.74 278.403,1599.62C278.626,1599.39 278.626,1599.02 278.403,1598.79L274.939,1595.23C274.716,1595 274.354,1595 274.131,1595.23L270.667,1598.79C270.444,1599.02 270.444,1599.39 270.667,1599.62C270.779,1599.74 270.925,1599.8 271.071,1599.8C271.218,1599.8 271.364,1599.74 271.475,1599.62L273.964,1597.06L273.964,1605.65C273.964,1605.98 274.219,1606.24 274.535,1606.24Z" style="fill:white;"/>
    </g>
</svg>
