<?xml version="1.0" encoding="UTF-8" standalone="no"?>
<!DOCTYPE svg PUBLIC "-//W3C//DTD SVG 1.1//EN" "http://www.w3.org/Graphics/SVG/1.1/DTD/svg11.dtd">
<svg width="32" height="32" viewBox="0 0 32 32" version="1.1" xmlns="http://www.w3.org/2000/svg" xmlns:xlink="http://www.w3.org/1999/xlink" xml:space="preserve" xmlns:serif="http://www.serif.com/" style="fill-rule:evenodd;clip-rule:evenodd;stroke-linejoin:round;stroke-miterlimit:1.41421;">
    <g id="Forma-1" serif:id="Forma 1" transform="matrix(1,0,0,1,-40.9995,-191.443)">
        <path d="M67.032,212.813C66.342,212.089 65.188,211.457 63.369,210.501C62.451,210.02 60.925,209.219 60.555,208.852C62.105,206.852 63.004,204.592 63.004,202.614C63.004,201.272 63.004,199.603 62.289,198.113C61.644,196.772 60.203,195.174 57,195.174C53.797,195.174 52.356,196.772 51.711,198.113C50.995,199.603 50.995,201.272 50.995,202.614C50.995,204.593 51.894,206.852 53.445,208.852C53.074,209.219 51.547,210.021 50.63,210.501C48.811,211.457 47.657,212.089 46.966,212.813C45.438,214.419 45.323,217.112 45.315,217.637C45.307,218.183 45.508,218.712 45.875,219.103C46.24,219.492 46.741,219.712 47.262,219.712L66.737,219.712C67.259,219.712 67.759,219.492 68.124,219.103C68.49,218.712 68.692,218.183 68.684,217.636C68.677,217.112 68.56,214.419 67.032,212.813ZM67.084,218.026C66.992,218.124 66.868,218.179 66.737,218.179L47.262,218.179C47.133,218.179 47.006,218.123 46.916,218.026C46.825,217.929 46.774,217.796 46.775,217.66C46.779,217.403 46.846,215.109 47.999,213.899C48.531,213.34 49.646,212.734 51.283,211.873C53.032,210.956 54.001,210.409 54.448,209.966L55.434,208.987L54.578,207.883C53.23,206.145 52.455,204.224 52.455,202.614C52.455,201.374 52.455,199.968 53.015,198.804C53.684,197.413 55.024,196.707 57,196.707C58.975,196.707 60.316,197.413 60.985,198.804C61.544,199.968 61.544,201.374 61.544,202.614C61.544,204.223 60.771,206.144 59.421,207.883L58.565,208.988L59.551,209.966C59.997,210.409 60.966,210.955 62.715,211.873C64.353,212.733 65.467,213.339 65.999,213.899C66.937,214.883 67.211,216.726 67.223,217.66C67.226,217.796 67.175,217.929 67.084,218.026Z" style="fill:white;fill-opacity:0.8;fill-rule:nonzero;"/>
    </g>
</svg>
